<?xml version="1.0" standalone="no"?>
<!DOCTYPE svg PUBLIC "-//W3C//DTD SVG 20010904//EN"
 "http://www.w3.org/TR/2001/REC-SVG-20010904/DTD/svg10.dtd">
<svg version="1.0" xmlns="http://www.w3.org/2000/svg"
 width="1000.000000pt" height="1000.000000pt" viewBox="0 0 1000.000000 1000.000000"
 preserveAspectRatio="xMidYMid meet">
<metadata>
Created by potrace 1.14, written by Peter Selinger 2001-2017
</metadata>
<g transform="translate(0.000000,1000.000000) scale(0.100000,-0.100000)"
fill="#000000" stroke="none">
<path d="M4815 9694 c-586 -46 -1120 -180 -1647 -413 -737 -326 -1405 -860
-1898 -1516 -867 -1155 -1172 -2649 -829 -4055 232 -947 741 -1800 1464 -2449
692 -622 1498 -1013 2418 -1176 306 -54 393 -60 827 -60 467 0 559 9 1010 95
76 14 340 83 336 88 -2 2 -62 -6 -133 -17 -71 -12 -132 -21 -135 -21 -3 0 -9
12 -12 26 -18 68 -86 121 -201 155 -98 29 -142 54 -160 90 -9 17 -31 37 -51
45 -19 8 -44 24 -55 35 -11 11 -34 25 -50 31 -15 5 -38 26 -50 45 -20 33 -21
37 -7 62 9 14 19 44 22 67 8 43 -6 179 -25 255 -11 42 -9 59 19 165 47 183 56
259 87 694 8 118 20 262 25 320 8 79 7 155 -4 310 -7 113 -12 220 -9 237 3 18
-5 91 -17 163 l-23 130 23 85 c21 79 22 95 15 242 -4 87 -9 223 -10 303 -1 80
-5 162 -10 183 -6 33 -11 38 -34 37 -14 -1 -38 -2 -52 -1 l-25 1 4 188 c4 166
2 204 -19 322 -20 112 -23 161 -21 283 l4 147 120 118 c66 64 123 118 128 120
4 2 11 -18 14 -43 7 -43 78 -197 111 -239 15 -20 15 -20 29 0 28 37 41 93 29
122 -7 15 -28 68 -49 117 -20 50 -38 91 -39 93 -1 1 -14 -2 -29 -8 -15 -5 -57
-14 -94 -20 -54 -9 -84 -22 -155 -67 -54 -33 -95 -53 -106 -50 -23 6 -31 0
-53 -35 -12 -18 -23 -25 -37 -21 -27 7 -84 -23 -110 -57 -21 -29 -21 -32 -6
-83 26 -89 38 -285 31 -527 -4 -123 -8 -226 -10 -227 -2 -2 -20 4 -41 13 -31
13 -46 14 -81 5 -100 -26 -149 -3 -239 112 -85 109 -91 112 -196 108 -61 -2
-97 2 -123 13 -38 16 -41 36 -6 36 26 0 149 66 182 97 l28 27 -40 23 -40 24 0
168 0 168 63 5 c54 5 73 13 146 59 l85 54 83 0 c81 0 83 0 64 17 -12 9 -43 21
-69 26 -48 11 -77 7 -202 -22 -69 -17 -156 -21 -163 -8 -3 4 -6 56 -8 116 l-4
109 95 41 c52 22 97 43 100 47 3 3 29 18 58 34 90 48 130 90 148 151 16 55 13
96 -8 121 -8 10 -17 9 -42 -6 -17 -10 -64 -36 -104 -57 -60 -32 -74 -36 -82
-24 -8 12 -14 12 -45 -3 -20 -9 -59 -17 -90 -17 l-54 0 -5 45 c-3 25 -9 66
-12 93 -3 26 -23 117 -44 202 -52 206 -70 315 -70 414 l1 81 61 45 c126 91
230 163 227 154 -2 -5 -19 -37 -36 -71 -40 -76 -78 -186 -93 -271 -10 -57 -9
-65 10 -92 24 -34 55 -46 76 -29 8 6 30 64 50 128 19 64 39 124 45 133 5 10 9
26 9 35 0 26 34 163 41 163 3 0 13 -34 23 -75 16 -68 19 -74 37 -65 21 12 19
37 -8 123 -18 58 -19 57 93 132 117 79 219 122 308 130 95 8 166 26 166 41 0
15 -48 54 -66 54 -7 0 -32 10 -56 22 -31 16 -57 22 -98 20 -82 -3 -423 -53
-437 -63 -6 -6 -13 -6 -15 -2 -3 4 -3 1 -1 -7 3 -8 7 -45 10 -81 l6 -66 -74
-22 c-85 -26 -227 -90 -266 -121 -15 -11 -30 -17 -34 -13 -9 10 -55 191 -64
256 -8 55 -5 59 85 106 72 38 143 58 230 67 62 6 71 9 76 30 14 56 8 59 -116
59 -104 -1 -121 -3 -175 -28 -32 -15 -74 -39 -91 -52 l-33 -25 -19 53 c-11 29
-25 71 -31 94 -10 35 -15 41 -44 46 -50 7 -170 -11 -260 -40 -167 -52 -318
-148 -356 -225 -28 -59 -44 -192 -37 -303 4 -51 2 -105 -4 -125 -11 -39 -34
-267 -35 -350 l0 -55 -92 -56 c-51 -31 -99 -61 -107 -69 -20 -16 -20 -44 -2
-73 13 -20 9 -31 -61 -147 -86 -143 -170 -310 -179 -357 -13 -67 89 -183 160
-183 26 0 52 19 151 111 l119 112 18 -84 c22 -113 22 -204 -3 -394 -11 -88
-18 -180 -15 -203 5 -39 57 -152 89 -193 7 -9 50 -22 107 -33 98 -18 289 -66
373 -93 45 -14 48 -17 43 -42 -3 -14 -9 -69 -12 -123 -7 -92 -6 -98 20 -142
39 -66 50 -139 31 -201 -20 -69 -19 -84 11 -112 l27 -25 -6 -158 c-3 -101 -10
-166 -18 -181 -15 -27 -26 -172 -37 -494 l-8 -220 -71 -215 c-90 -272 -89
-266 -108 -445 -9 -82 -25 -208 -35 -279 -11 -71 -20 -157 -20 -191 0 -50 -6
-72 -30 -116 -34 -61 -37 -101 -14 -149 24 -46 14 -190 -20 -293 -30 -90 -34
-172 -10 -198 15 -16 14 -21 -12 -54 -23 -30 -25 -38 -13 -46 8 -5 20 -9 27
-9 16 0 16 -3 -15 -92 -16 -43 -33 -78 -39 -78 -23 0 -193 73 -359 154 -905
440 -1623 1149 -2074 2046 -417 832 -570 1732 -450 2644 105 797 416 1545 908
2186 501 654 1200 1175 1971 1472 190 73 450 152 629 192 675 152 1392 148
2056 -9 902 -215 1702 -689 2345 -1390 66 -72 70 -75 35 -25 -119 168 -277
354 -459 539 -779 795 -1780 1287 -2896 1422 -140 17 -242 22 -510 24 -184 1
-357 1 -385 -1z m-1049 -4034 c20 -22 49 -48 65 -57 l27 -16 -40 -29 c-22 -16
-47 -41 -55 -56 -9 -15 -47 -47 -86 -72 -38 -25 -90 -64 -114 -87 -74 -72
-128 -52 -80 29 46 78 232 328 245 328 1 0 18 -18 38 -40z m1748 -957 c-9 -65
-14 -67 -14 -5 0 30 4 52 11 52 7 0 8 -16 3 -47z m19 -636 c-16 -194 -15 -188
-31 -178 -11 7 -12 58 -6 277 l7 268 21 -107 c21 -101 21 -115 9 -260z m-444
-1017 c12 -20 21 -53 21 -75 1 -22 8 -58 16 -80 14 -36 35 -124 47 -200 3 -16
10 -57 17 -90 11 -53 10 -71 -10 -160 -31 -139 -35 -202 -20 -332 13 -107 12
-118 -8 -198 -25 -97 -27 -136 -10 -198 9 -35 7 -78 -11 -233 -12 -104 -21
-243 -21 -309 0 -152 -14 -281 -41 -370 -28 -93 -23 -169 13 -200 l26 -22 -25
-74 c-24 -69 -25 -82 -19 -206 l7 -133 -24 0 c-19 0 -25 8 -35 46 -17 64 -84
131 -206 206 -121 74 -193 139 -231 209 -27 51 -27 52 -6 46 35 -9 36 15 2
110 -62 176 -60 238 11 418 22 55 42 125 45 155 3 30 29 138 59 240 65 228
100 365 114 452 5 37 20 88 31 115 12 26 23 73 25 103 1 30 8 84 15 119 9 49
9 80 1 126 -13 70 -4 120 34 175 30 45 64 175 68 264 3 55 10 82 37 132 l34
63 11 -32 c6 -18 21 -48 33 -67z"/>
<path d="M5020 8240 c-115 -28 -213 -105 -280 -223 -87 -151 -101 -264 -47
-395 41 -103 190 -362 207 -362 25 0 153 36 185 51 27 13 33 25 54 107 19 72
28 92 41 92 10 0 21 8 24 17 6 14 15 9 52 -28 l45 -44 -31 70 c-28 63 -30 75
-24 133 l6 63 42 -3 c32 -2 42 -7 44 -23 5 -27 51 -71 56 -53 2 7 14 42 26 78
13 35 25 92 28 126 4 60 6 64 48 93 45 33 84 86 84 116 0 39 -141 195 -177
195 -8 0 -26 -9 -42 -21 l-27 -20 -101 20 c-106 22 -155 24 -213 11z"/>
<path d="M5945 6435 c4 -11 10 -65 13 -119 l4 -99 64 -84 c35 -46 84 -123 108
-171 43 -86 67 -111 135 -146 37 -20 91 -15 111 9 10 12 4 28 -30 87 -68 115
-156 244 -241 353 -82 106 -178 204 -164 170z"/>
<path d="M5145 5935 c4 -22 15 -101 25 -175 12 -93 18 -119 19 -83 1 53 -35
282 -45 292 -4 3 -3 -12 1 -34z"/>
<path d="M5890 5667 c0 -51 8 -57 74 -57 37 0 70 6 81 14 17 12 14 15 -41 35
-32 12 -71 25 -86 28 -25 5 -28 3 -28 -20z"/>
<path d="M6325 5620 c-3 -5 -21 -10 -39 -10 -18 0 -40 -6 -51 -13 -17 -13 -16
-14 13 -20 23 -5 36 -16 51 -46 12 -22 25 -42 30 -45 5 -3 15 -30 21 -58 7
-29 16 -59 19 -66 10 -17 61 38 76 83 11 31 11 33 -4 26 -23 -12 -53 2 -84 39
-33 39 -44 77 -28 102 6 10 9 18 7 18 -3 0 -8 -4 -11 -10z"/>
</g>
</svg>
